<svg width="153" height="153" viewBox="0 0 153 153" fill="none" xmlns="http://www.w3.org/2000/svg">
<path d="M31.2 61.4017V46.302C31.2 43.735 31.4114 41.2058 31.8267 38.7521M121.8 61.4017V46.302C121.801 37.1005 118.999 28.1171 113.768 20.5471C108.537 12.9771 101.125 7.17966 92.5173 3.92618C83.91 0.672706 74.5161 0.117516 65.5855 2.3345C56.655 4.55148 48.6113 9.43549 42.525 16.3366M68.95 152H46.3C24.9486 152 14.2654 152 7.63645 145.364C1 138.735 1 128.052 1 106.701C1 85.3499 1 74.6668 7.63645 68.038C14.2654 61.4017 24.9486 61.4017 46.3 61.4017H106.7C128.051 61.4017 138.735 61.4017 145.364 68.038C152 74.6668 152 85.3499 152 106.701C152 128.052 152 138.735 145.364 145.364C138.735 152 128.051 152 106.7 152H99.15" stroke="#A4A3A3" stroke-width="2" stroke-linecap="round"/>
</svg>
