<svg width="551" height="228" viewBox="0 0 551 228" fill="none" xmlns="http://www.w3.org/2000/svg">
<rect x="-15" y="118" width="75" height="57" rx="7" fill="#474444" fill-opacity="0.5" stroke="url(#paint0_linear_36_774)" stroke-width="2"/>
<path d="M12 145.5C12 137.25 12 133.126 14.562 130.562C17.1275 128 21.2505 128 29.5 128C37.7495 128 41.8742 128 44.4362 130.562C47 133.127 47 137.25 47 145.5C47 153.75 47 157.874 44.4362 160.436C41.876 163 37.7495 163 29.5 163C21.2505 163 17.1258 163 14.562 160.436C12 157.876 12 153.75 12 145.5Z" stroke="#F8F8F8" stroke-width="1.5"/>
<path d="M17.25 143.75C17.25 138.801 17.25 136.325 18.7883 134.788C20.3248 133.25 22.801 133.25 27.75 133.25H31.25C36.199 133.25 38.6753 133.25 40.2118 134.788C41.75 136.325 41.75 138.801 41.75 143.75V147.25C41.75 152.199 41.75 154.675 40.2118 156.212C38.6753 157.75 36.199 157.75 31.25 157.75H27.75C22.801 157.75 20.3248 157.75 18.7883 156.212C17.25 154.675 17.25 152.199 17.25 147.25V143.75Z" stroke="#F8F8F8" stroke-width="1.5"/>
<path d="M22.5 145.5C22.5 143.643 23.2375 141.863 24.5503 140.55C25.863 139.237 27.6435 138.5 29.5 138.5C31.3565 138.5 33.137 139.237 34.4497 140.55C35.7625 141.863 36.5 143.643 36.5 145.5C36.5 147.357 35.7625 149.137 34.4497 150.45C33.137 151.763 31.3565 152.5 29.5 152.5C27.6435 152.5 25.863 151.763 24.5503 150.45C23.2375 149.137 22.5 147.357 22.5 145.5Z" stroke="#F8F8F8" stroke-width="1.5"/>
<path d="M32.125 145.5C32.125 146.196 31.8484 146.864 31.3562 147.356C30.8639 147.848 30.1962 148.125 29.5 148.125C28.8038 148.125 28.1361 147.848 27.6438 147.356C27.1516 146.864 26.875 146.196 26.875 145.5C26.875 144.804 27.1516 144.136 27.6438 143.644C28.1361 143.152 28.8038 142.875 29.5 142.875C30.1962 142.875 30.8639 143.152 31.3562 143.644C31.8484 144.136 32.125 144.804 32.125 145.5Z" fill="#F8F8F8"/>
<path d="M28.625 145.5V138.5M28.625 145.5L34.75 148.125M28.625 145.5L22.5 148.125" stroke="#F8F8F8" stroke-width="1.5"/>
<path d="M16.375 136.75V142M16.375 149V154.25" stroke="#F8F8F8" stroke-width="1.5" stroke-linecap="round"/>
<rect x="75" y="1" width="116" height="39" rx="7" fill="#474444" fill-opacity="0.5" stroke="url(#paint1_linear_36_774)" stroke-width="2"/>
<path d="M84.8622 26L82.277 16.5455H83.4403L85.4162 24.2457H85.5085L87.5213 16.5455H88.8139L90.8267 24.2457H90.919L92.8949 16.5455H94.0582L91.473 26H90.2912L88.2045 18.4659H88.1307L86.044 26H84.8622ZM95.4847 26V16.5455H101.154V17.5611H96.6296V20.7557H100.729V21.7713H96.6296V26H95.4847ZM104.407 16.5455L104.315 23.3409H103.244L103.152 16.5455H104.407ZM103.779 26.0739C103.552 26.0739 103.356 25.9923 103.193 25.8292C103.03 25.6661 102.948 25.4706 102.948 25.2429C102.948 25.0152 103.03 24.8197 103.193 24.6566C103.356 24.4935 103.552 24.4119 103.779 24.4119C104.007 24.4119 104.203 24.4935 104.366 24.6566C104.529 24.8197 104.61 25.0152 104.61 25.2429C104.61 25.3937 104.572 25.5322 104.495 25.6584C104.421 25.7846 104.321 25.8861 104.195 25.9631C104.072 26.0369 103.933 26.0739 103.779 26.0739ZM112.032 27.108C111.091 27.108 110.258 26.9787 109.535 26.7202C108.812 26.4647 108.204 26.0877 107.711 25.5891C107.219 25.0906 106.847 24.4796 106.594 23.7564C106.342 23.0331 106.216 22.2053 106.216 21.2727C106.216 20.371 106.343 19.5646 106.599 18.8537C106.857 18.1428 107.231 17.5395 107.721 17.044C108.213 16.5455 108.81 16.1654 109.512 15.9038C110.217 15.6422 111.014 15.5114 111.903 15.5114C112.768 15.5114 113.525 15.6529 114.175 15.9361C114.827 16.2161 115.372 16.5962 115.809 17.0763C116.249 17.5534 116.578 18.0904 116.797 18.6875C117.018 19.2846 117.129 19.9001 117.129 20.5341C117.129 20.9804 117.108 21.4328 117.064 21.8913C117.021 22.3499 116.931 22.7715 116.792 23.1562C116.654 23.5379 116.44 23.8456 116.15 24.0795C115.864 24.3134 115.476 24.4304 114.987 24.4304C114.772 24.4304 114.535 24.3965 114.276 24.3288C114.018 24.2611 113.788 24.1488 113.588 23.9918C113.388 23.8349 113.27 23.6241 113.233 23.3594H113.177C113.104 23.5379 112.99 23.7071 112.836 23.8672C112.685 24.0272 112.486 24.1549 112.24 24.2504C111.997 24.3458 111.7 24.3873 111.349 24.375C110.949 24.3596 110.597 24.2704 110.292 24.1072C109.987 23.9411 109.732 23.7164 109.526 23.4332C109.323 23.147 109.169 22.8162 109.064 22.4407C108.963 22.0621 108.912 21.6544 108.912 21.2173C108.912 20.8018 108.973 20.4218 109.096 20.0771C109.22 19.7324 109.39 19.4308 109.609 19.1722C109.83 18.9137 110.089 18.7075 110.384 18.5536C110.683 18.3967 111.005 18.2997 111.349 18.2628C111.657 18.232 111.937 18.2459 112.189 18.3043C112.442 18.3597 112.65 18.4444 112.813 18.5582C112.976 18.669 113.079 18.7921 113.122 18.9276H113.177V18.4105H114.156V22.5838C114.156 22.8423 114.228 23.0701 114.373 23.267C114.518 23.464 114.729 23.5625 115.006 23.5625C115.319 23.5625 115.559 23.4548 115.726 23.2393C115.895 23.0239 116.01 22.6915 116.072 22.2422C116.137 21.7929 116.169 21.2173 116.169 20.5156C116.169 20.1032 116.112 19.697 115.998 19.2969C115.887 18.8937 115.718 18.5167 115.49 18.1658C115.266 17.815 114.981 17.5057 114.636 17.2379C114.291 16.9702 113.887 16.7609 113.422 16.6101C112.96 16.4562 112.436 16.3793 111.848 16.3793C111.125 16.3793 110.477 16.4916 109.904 16.7163C109.335 16.9379 108.85 17.2625 108.45 17.6903C108.053 18.1151 107.75 18.6321 107.541 19.2415C107.334 19.8478 107.231 20.5372 107.231 21.3097C107.231 22.0945 107.334 22.7915 107.541 23.4009C107.75 24.0103 108.058 24.5243 108.464 24.9428C108.873 25.3614 109.38 25.6799 109.983 25.8984C110.586 26.1139 111.282 26.2216 112.069 26.2216C112.408 26.2216 112.742 26.1893 113.071 26.1246C113.401 26.06 113.691 25.9892 113.944 25.9123C114.196 25.8353 114.378 25.7784 114.488 25.7415L114.747 26.5909C114.556 26.6709 114.307 26.7509 113.999 26.831C113.694 26.911 113.368 26.9772 113.02 27.0295C112.676 27.0818 112.346 27.108 112.032 27.108ZM111.497 23.4332C111.909 23.4332 112.243 23.3501 112.499 23.1839C112.754 23.0178 112.94 22.7669 113.057 22.4315C113.174 22.096 113.233 21.6728 113.233 21.1619C113.233 20.6449 113.168 20.2417 113.039 19.9524C112.91 19.6631 112.719 19.46 112.466 19.343C112.214 19.2261 111.903 19.1676 111.534 19.1676C111.183 19.1676 110.883 19.2599 110.634 19.4446C110.387 19.6262 110.198 19.8693 110.066 20.174C109.937 20.4756 109.872 20.8049 109.872 21.1619C109.872 21.5559 109.924 21.9267 110.029 22.2745C110.134 22.6192 110.304 22.8993 110.541 23.1147C110.778 23.3271 111.097 23.4332 111.497 23.4332ZM118.908 26V16.5455H124.577V17.5611H120.052V20.7557H124.152V21.7713H120.052V26H118.908ZM129.566 26.1293C128.956 26.1293 128.413 26.0246 127.936 25.8153C127.462 25.6061 127.085 25.3152 126.805 24.9428C126.528 24.5674 126.377 24.1319 126.353 23.6364H127.516C127.541 23.9411 127.645 24.2042 127.83 24.4258C128.015 24.6443 128.256 24.8136 128.555 24.9336C128.853 25.0536 129.184 25.1136 129.547 25.1136C129.954 25.1136 130.314 25.0429 130.628 24.9013C130.942 24.7597 131.188 24.5627 131.366 24.3104C131.545 24.058 131.634 23.7656 131.634 23.4332C131.634 23.0855 131.548 22.7792 131.376 22.5146C131.203 22.2468 130.951 22.0375 130.618 21.8867C130.286 21.7359 129.88 21.6605 129.4 21.6605H128.643V20.6449H129.4C129.775 20.6449 130.104 20.5772 130.388 20.4418C130.674 20.3063 130.897 20.1155 131.057 19.8693C131.22 19.6231 131.302 19.3338 131.302 19.0014C131.302 18.6813 131.231 18.4028 131.089 18.1658C130.948 17.9289 130.748 17.7442 130.489 17.6119C130.234 17.4795 129.932 17.4134 129.584 17.4134C129.258 17.4134 128.95 17.4734 128.661 17.5934C128.375 17.7103 128.141 17.8812 127.959 18.1058C127.778 18.3274 127.679 18.5952 127.664 18.9091H126.556C126.574 18.4136 126.724 17.9796 127.004 17.6072C127.284 17.2318 127.65 16.9394 128.102 16.7301C128.558 16.5208 129.058 16.4162 129.603 16.4162C130.188 16.4162 130.689 16.5347 131.108 16.7717C131.526 17.0056 131.848 17.3149 132.073 17.6996C132.297 18.0843 132.41 18.4998 132.41 18.946C132.41 19.4785 132.27 19.9324 131.99 20.3079C131.713 20.6834 131.336 20.9434 130.858 21.0881V21.1619C131.456 21.2604 131.922 21.5143 132.257 21.9237C132.593 22.3299 132.76 22.8331 132.76 23.4332C132.76 23.9472 132.62 24.4089 132.34 24.8182C132.063 25.2244 131.685 25.5445 131.205 25.7784C130.725 26.0123 130.178 26.1293 129.566 26.1293ZM134.649 26V25.169L137.769 21.7528C138.136 21.3527 138.437 21.005 138.674 20.7095C138.911 20.411 139.087 20.1309 139.2 19.8693C139.317 19.6046 139.376 19.3277 139.376 19.0384C139.376 18.706 139.296 18.4182 139.136 18.1751C138.979 17.9319 138.763 17.7442 138.49 17.6119C138.216 17.4795 137.908 17.4134 137.566 17.4134C137.203 17.4134 136.886 17.4888 136.615 17.6396C136.347 17.7873 136.14 17.995 135.992 18.2628C135.847 18.5305 135.775 18.8445 135.775 19.2045H134.686C134.686 18.6506 134.813 18.1643 135.069 17.7457C135.324 17.3272 135.672 17.0009 136.112 16.767C136.555 16.5331 137.052 16.4162 137.603 16.4162C138.157 16.4162 138.648 16.5331 139.076 16.767C139.504 17.0009 139.839 17.3164 140.082 17.7134C140.325 18.1104 140.447 18.5521 140.447 19.0384C140.447 19.3861 140.384 19.7262 140.258 20.0586C140.135 20.3879 139.919 20.7557 139.611 21.1619C139.307 21.5651 138.883 22.0575 138.342 22.6392L136.218 24.9105V24.9844H140.613V26H134.649ZM142.095 24.0611V23.1193L146.25 16.5455H146.933V18.0043H146.471L143.332 22.9716V23.0455H148.927V24.0611H142.095ZM146.545 26V23.7749V23.3363V16.5455H147.635V26H146.545ZM153.852 26.1293C153.243 26.1293 152.699 26.0246 152.222 25.8153C151.748 25.6061 151.371 25.3152 151.091 24.9428C150.814 24.5674 150.664 24.1319 150.639 23.6364H151.802C151.827 23.9411 151.932 24.2042 152.116 24.4258C152.301 24.6443 152.542 24.8136 152.841 24.9336C153.14 25.0536 153.47 25.1136 153.834 25.1136C154.24 25.1136 154.6 25.0429 154.914 24.9013C155.228 24.7597 155.474 24.5627 155.652 24.3104C155.831 24.058 155.92 23.7656 155.92 23.4332C155.92 23.0855 155.834 22.7792 155.662 22.5146C155.489 22.2468 155.237 22.0375 154.905 21.8867C154.572 21.7359 154.166 21.6605 153.686 21.6605H152.929V20.6449H153.686C154.061 20.6449 154.391 20.5772 154.674 20.4418C154.96 20.3063 155.183 20.1155 155.343 19.8693C155.506 19.6231 155.588 19.3338 155.588 19.0014C155.588 18.6813 155.517 18.4028 155.375 18.1658C155.234 17.9289 155.034 17.7442 154.775 17.6119C154.52 17.4795 154.218 17.4134 153.87 17.4134C153.544 17.4134 153.236 17.4734 152.947 17.5934C152.661 17.7103 152.427 17.8812 152.245 18.1058C152.064 18.3274 151.965 18.5952 151.95 18.9091H150.842C150.861 18.4136 151.01 17.9796 151.29 17.6072C151.57 17.2318 151.936 16.9394 152.389 16.7301C152.844 16.5208 153.344 16.4162 153.889 16.4162C154.474 16.4162 154.975 16.5347 155.394 16.7717C155.812 17.0056 156.134 17.3149 156.359 17.6996C156.583 18.0843 156.696 18.4998 156.696 18.946C156.696 19.4785 156.556 19.9324 156.276 20.3079C155.999 20.6834 155.622 20.9434 155.145 21.0881V21.1619C155.742 21.2604 156.208 21.5143 156.543 21.9237C156.879 22.3299 157.047 22.8331 157.047 23.4332C157.047 23.9472 156.907 24.4089 156.627 24.8182C156.35 25.2244 155.971 25.5445 155.491 25.7784C155.011 26.0123 154.464 26.1293 153.852 26.1293ZM161.723 27.1818V15.3636H162.48V27.1818H161.723ZM164.271 18.9091C164.216 18.4413 163.991 18.0781 163.597 17.8196C163.203 17.5611 162.72 17.4318 162.148 17.4318C161.729 17.4318 161.363 17.4995 161.049 17.6349C160.738 17.7704 160.495 17.9566 160.32 18.1935C160.147 18.4305 160.061 18.6998 160.061 19.0014C160.061 19.2538 160.121 19.4708 160.241 19.6523C160.364 19.8308 160.521 19.9801 160.712 20.1001C160.903 20.2171 161.103 20.314 161.312 20.391C161.522 20.4648 161.714 20.5249 161.889 20.571L162.85 20.8295C163.096 20.8942 163.37 20.9834 163.671 21.0973C163.976 21.2112 164.267 21.3666 164.544 21.5636C164.824 21.7575 165.055 22.0067 165.236 22.3114C165.418 22.6161 165.509 22.9901 165.509 23.4332C165.509 23.9441 165.375 24.4058 165.107 24.8182C164.842 25.2306 164.455 25.5584 163.944 25.8015C163.436 26.0446 162.819 26.1662 162.092 26.1662C161.415 26.1662 160.829 26.0569 160.334 25.8384C159.841 25.6199 159.453 25.3152 159.17 24.9244C158.89 24.5335 158.732 24.0795 158.695 23.5625H159.877C159.907 23.9195 160.027 24.215 160.237 24.4489C160.449 24.6797 160.717 24.852 161.04 24.9659C161.366 25.0767 161.717 25.1321 162.092 25.1321C162.529 25.1321 162.922 25.0613 163.27 24.9197C163.617 24.7751 163.893 24.575 164.096 24.3196C164.299 24.0611 164.401 23.7595 164.401 23.4148C164.401 23.1009 164.313 22.8454 164.138 22.6484C163.962 22.4515 163.731 22.2914 163.445 22.1683C163.159 22.0452 162.85 21.9375 162.517 21.8452L161.354 21.5128C160.615 21.3004 160.03 20.9973 159.6 20.6033C159.169 20.2094 158.953 19.6939 158.953 19.0568C158.953 18.5275 159.096 18.0658 159.383 17.6719C159.672 17.2749 160.06 16.9671 160.546 16.7486C161.035 16.527 161.582 16.4162 162.185 16.4162C162.794 16.4162 163.336 16.5254 163.81 16.744C164.284 16.9594 164.659 17.2549 164.936 17.6303C165.216 18.0058 165.364 18.4321 165.379 18.9091H164.271ZM170.401 18.9091V19.8324H166.578V18.9091H170.401ZM167.723 26V17.9304C167.723 17.5241 167.819 17.1856 168.01 16.9148C168.2 16.6439 168.448 16.4408 168.753 16.3054C169.058 16.17 169.379 16.1023 169.718 16.1023C169.985 16.1023 170.204 16.1238 170.373 16.1669C170.542 16.21 170.669 16.25 170.752 16.2869L170.438 17.2287C170.382 17.2102 170.306 17.1871 170.207 17.1594C170.112 17.1317 169.985 17.1179 169.828 17.1179C169.468 17.1179 169.208 17.2087 169.048 17.3903C168.891 17.5719 168.813 17.8381 168.813 18.1889V26H167.723ZM173.811 26.1662C173.362 26.1662 172.954 26.0816 172.588 25.9123C172.222 25.7399 171.931 25.4922 171.715 25.169C171.5 24.8428 171.392 24.4489 171.392 23.9872C171.392 23.581 171.472 23.2517 171.632 22.9993C171.792 22.7438 172.006 22.5438 172.274 22.3991C172.542 22.2545 172.837 22.1468 173.16 22.076C173.487 22.0021 173.814 21.9437 174.144 21.9006C174.575 21.8452 174.924 21.8036 175.192 21.7759C175.463 21.7451 175.659 21.6944 175.783 21.6236C175.909 21.5528 175.972 21.4297 175.972 21.2543V21.2173C175.972 20.7618 175.847 20.4079 175.598 20.1555C175.352 19.9032 174.978 19.777 174.476 19.777C173.956 19.777 173.548 19.8909 173.253 20.1186C172.957 20.3464 172.75 20.5895 172.63 20.848L171.595 20.4787C171.78 20.0478 172.026 19.7124 172.334 19.4723C172.645 19.2292 172.983 19.0599 173.35 18.9645C173.719 18.866 174.082 18.8168 174.439 18.8168C174.667 18.8168 174.929 18.8445 175.224 18.8999C175.523 18.9522 175.81 19.0614 176.087 19.2276C176.367 19.3938 176.6 19.6446 176.784 19.9801C176.969 20.3156 177.061 20.7649 177.061 21.3281V26H175.972V25.0398H175.916C175.843 25.1937 175.719 25.3583 175.547 25.5337C175.375 25.7092 175.146 25.8584 174.859 25.9815C174.573 26.1046 174.224 26.1662 173.811 26.1662ZM173.978 25.1875C174.408 25.1875 174.772 25.1029 175.067 24.9336C175.366 24.7643 175.59 24.5458 175.741 24.2781C175.895 24.0103 175.972 23.7287 175.972 23.4332V22.4361C175.926 22.4915 175.824 22.5423 175.667 22.5884C175.513 22.6315 175.335 22.67 175.132 22.7038C174.932 22.7346 174.736 22.7623 174.545 22.7869C174.358 22.8085 174.205 22.8269 174.088 22.8423C173.805 22.8793 173.541 22.9393 173.294 23.0224C173.051 23.1024 172.854 23.224 172.703 23.3871C172.556 23.5471 172.482 23.7656 172.482 24.0426C172.482 24.4212 172.622 24.7074 172.902 24.9013C173.185 25.0921 173.544 25.1875 173.978 25.1875ZM184.073 20.4972L183.094 20.7741C183.032 20.611 182.942 20.4525 182.822 20.2987C182.705 20.1417 182.545 20.0124 182.341 19.9109C182.138 19.8093 181.878 19.7585 181.561 19.7585C181.127 19.7585 180.766 19.8585 180.476 20.0586C180.19 20.2556 180.047 20.5064 180.047 20.8111C180.047 21.0819 180.146 21.2958 180.343 21.4528C180.539 21.6097 180.847 21.7405 181.266 21.8452L182.318 22.1037C182.952 22.2576 183.425 22.493 183.736 22.81C184.046 23.1239 184.202 23.5286 184.202 24.0241C184.202 24.4304 184.085 24.7936 183.851 25.1136C183.62 25.4337 183.297 25.6861 182.882 25.8707C182.466 26.0554 181.983 26.1477 181.432 26.1477C180.709 26.1477 180.11 25.9908 179.636 25.6768C179.162 25.3629 178.862 24.9044 178.736 24.3011L179.77 24.0426C179.869 24.4242 180.055 24.7105 180.329 24.9013C180.606 25.0921 180.967 25.1875 181.414 25.1875C181.921 25.1875 182.325 25.0798 182.623 24.8643C182.925 24.6458 183.075 24.3842 183.075 24.0795C183.075 23.8333 182.989 23.6271 182.817 23.4609C182.645 23.2917 182.38 23.1655 182.023 23.0824L180.841 22.8054C180.192 22.6515 179.715 22.413 179.41 22.0898C179.108 21.7636 178.958 21.3558 178.958 20.8665C178.958 20.4664 179.07 20.1125 179.295 19.8047C179.522 19.4969 179.832 19.2553 180.222 19.0799C180.616 18.9045 181.063 18.8168 181.561 18.8168C182.263 18.8168 182.814 18.9706 183.214 19.2784C183.617 19.5862 183.903 19.9924 184.073 20.4972Z" fill="#AE9F9F"/>
<path d="M519.145 91V81.5455H520.29V89.9844H524.685V91H519.145ZM529.19 91.1477C528.55 91.1477 527.989 90.9954 527.505 90.6907C527.025 90.386 526.65 89.9598 526.379 89.4119C526.111 88.8641 525.977 88.224 525.977 87.4915C525.977 86.7528 526.111 86.1081 526.379 85.5572C526.65 85.0063 527.025 84.5785 527.505 84.2738C527.989 83.9691 528.55 83.8168 529.19 83.8168C529.83 83.8168 530.391 83.9691 530.871 84.2738C531.354 84.5785 531.729 85.0063 531.997 85.5572C532.268 86.1081 532.403 86.7528 532.403 87.4915C532.403 88.224 532.268 88.8641 531.997 89.4119C531.729 89.9598 531.354 90.386 530.871 90.6907C530.391 90.9954 529.83 91.1477 529.19 91.1477ZM529.19 90.169C529.677 90.169 530.077 90.0444 530.391 89.7951C530.705 89.5458 530.937 89.218 531.088 88.8118C531.239 88.4055 531.314 87.9654 531.314 87.4915C531.314 87.0175 531.239 86.5759 531.088 86.1665C530.937 85.7572 530.705 85.4264 530.391 85.174C530.077 84.9216 529.677 84.7955 529.19 84.7955C528.704 84.7955 528.304 84.9216 527.99 85.174C527.676 85.4264 527.444 85.7572 527.293 86.1665C527.142 86.5759 527.067 87.0175 527.067 87.4915C527.067 87.9654 527.142 88.4055 527.293 88.8118C527.444 89.218 527.676 89.5458 527.99 89.7951C528.304 90.0444 528.704 90.169 529.19 90.169ZM536.929 93.8068C536.402 93.8068 535.95 93.7391 535.571 93.6037C535.193 93.4714 534.877 93.2959 534.625 93.0774C534.376 92.862 534.177 92.6312 534.03 92.3849L534.897 91.7756C534.996 91.9048 535.121 92.0526 535.271 92.2188C535.422 92.388 535.628 92.5342 535.89 92.6573C536.155 92.7835 536.501 92.8466 536.929 92.8466C537.501 92.8466 537.974 92.7081 538.346 92.4311C538.718 92.1541 538.905 91.7202 538.905 91.1293V89.6889H538.812C538.732 89.8182 538.618 89.9782 538.471 90.169C538.326 90.3568 538.117 90.5245 537.843 90.6722C537.572 90.8169 537.206 90.8892 536.744 90.8892C536.172 90.8892 535.658 90.7538 535.202 90.483C534.75 90.2121 534.391 89.8182 534.127 89.3011C533.865 88.7841 533.734 88.1562 533.734 87.4176C533.734 86.6913 533.862 86.0588 534.117 85.5202C534.373 84.9786 534.728 84.56 535.184 84.2646C535.639 83.966 536.165 83.8168 536.763 83.8168C537.224 83.8168 537.59 83.8937 537.861 84.0476C538.135 84.1984 538.344 84.3707 538.489 84.5646C538.637 84.7554 538.751 84.9124 538.831 85.0355H538.941V83.9091H539.994V91.2031C539.994 91.8125 539.856 92.308 539.579 92.6896C539.305 93.0743 538.935 93.3559 538.471 93.5344C538.009 93.716 537.495 93.8068 536.929 93.8068ZM536.892 89.9105C537.329 89.9105 537.698 89.8105 538 89.6104C538.301 89.4104 538.531 89.1226 538.688 88.7472C538.845 88.3717 538.923 87.9223 538.923 87.3991C538.923 86.8883 538.846 86.4374 538.692 86.0465C538.538 85.6557 538.311 85.3494 538.009 85.1278C537.707 84.9062 537.335 84.7955 536.892 84.7955C536.43 84.7955 536.045 84.9124 535.738 85.1463C535.433 85.3802 535.204 85.6941 535.05 86.0881C534.899 86.482 534.824 86.919 534.824 87.3991C534.824 87.8916 534.901 88.3271 535.054 88.7056C535.211 89.0811 535.442 89.3765 535.747 89.592C536.055 89.8043 536.436 89.9105 536.892 89.9105ZM541.988 91V83.9091H543.078V91H541.988ZM542.542 82.7273C542.33 82.7273 542.147 82.6549 541.993 82.5103C541.842 82.3656 541.767 82.1918 541.767 81.9886C541.767 81.7855 541.842 81.6116 541.993 81.467C542.147 81.3223 542.33 81.25 542.542 81.25C542.755 81.25 542.936 81.3223 543.087 81.467C543.241 81.6116 543.318 81.7855 543.318 81.9886C543.318 82.1918 543.241 82.3656 543.087 82.5103C542.936 82.6549 542.755 82.7273 542.542 82.7273ZM546.163 86.7344V91H545.073V83.9091H546.126V85.017H546.218C546.384 84.657 546.637 84.3677 546.975 84.1491C547.314 83.9276 547.751 83.8168 548.286 83.8168C548.767 83.8168 549.187 83.9152 549.547 84.1122C549.907 84.3061 550.187 84.6016 550.387 84.9986C550.587 85.3925 550.687 85.8911 550.687 86.4943V91H549.597V86.5682C549.597 86.0111 549.453 85.5772 549.164 85.2663C548.874 84.9524 548.477 84.7955 547.972 84.7955C547.625 84.7955 547.314 84.8709 547.04 85.0217C546.769 85.1725 546.555 85.3925 546.398 85.6818C546.241 85.9711 546.163 86.322 546.163 86.7344Z" fill="#AE9F9F"/>
<rect x="506" y="68" width="64" height="33" rx="7" fill="#474444" fill-opacity="0.5" stroke="url(#paint2_linear_36_774)" stroke-width="2"/>
<rect x="300.043" y="47.5016" width="64" height="46" rx="7" transform="rotate(15 300.043 47.5016)" fill="#474444" fill-opacity="0.5" stroke="url(#paint3_linear_36_774)" stroke-width="2"/>
<g clip-path="url(#clip0_36_774)">
<path d="M323.114 82.7368L333.476 76.7541L331.968 74.1405L324.219 78.6144L321.995 74.7629L319.381 76.2718L323.114 82.7368ZM322.133 92.4736C319.008 90.7319 316.757 88.0679 315.38 84.4815C314.003 80.8951 313.805 77.27 314.786 73.6063L317.15 64.7828L329.885 63.544L340.294 70.9841L337.929 79.8076C336.948 83.4721 334.964 86.513 331.978 88.9304C328.992 91.3479 325.711 92.5289 322.133 92.4736ZM322.947 89.436C325.667 89.3122 328.167 88.2767 330.446 86.3292C332.725 84.3818 334.255 81.9495 335.036 79.0325L336.868 72.1979L329.061 66.6178L319.51 67.5469L317.679 74.3815C316.897 77.2985 317.006 80.1701 318.006 82.996C319.006 85.822 320.653 87.9686 322.947 89.436Z" fill="#42FA6A"/>
</g>
<path d="M0 134.275C70.4165 55.6297 120.109 -13.0363 214.195 72.4604C308.281 157.957 312.284 34.3283 352.821 151.936C393.358 269.544 549 84.1008 549 84.1008" stroke="#AE9F9F" stroke-width="2"/>
<defs>
<linearGradient id="paint0_linear_36_774" x1="-16" y1="97.6269" x2="31.6157" y2="230.964" gradientUnits="userSpaceOnUse">
<stop/>
<stop offset="1" stop-color="#666666"/>
</linearGradient>
<linearGradient id="paint1_linear_36_774" x1="74" y1="-13.4627" x2="90.4857" y2="88.3417" gradientUnits="userSpaceOnUse">
<stop/>
<stop offset="1" stop-color="#666666"/>
</linearGradient>
<linearGradient id="paint2_linear_36_774" x1="505" y1="55.5075" x2="525.773" y2="139.558" gradientUnits="userSpaceOnUse">
<stop/>
<stop offset="1" stop-color="#666666"/>
</linearGradient>
<linearGradient id="paint3_linear_36_774" x1="299.336" y1="30.5157" x2="336.521" y2="140.223" gradientUnits="userSpaceOnUse">
<stop/>
<stop offset="1" stop-color="#666666"/>
</linearGradient>
<clipPath id="clip0_36_774">
<rect width="35.9401" height="35.9401" fill="white" transform="translate(313.302 56) rotate(15)"/>
</clipPath>
</defs>
</svg>
