<svg width="551" height="249" viewBox="0 0 551 249" fill="none" xmlns="http://www.w3.org/2000/svg">
<rect x="-17" y="109" width="64" height="65" rx="7" fill="#474444" fill-opacity="0.5" stroke="url(#paint0_linear_36_773)" stroke-width="2"/>
<rect x="71" y="27" width="64" height="65" rx="7" fill="#474444" fill-opacity="0.5" stroke="url(#paint1_linear_36_773)" stroke-width="2"/>
<rect x="154" y="145" width="64" height="65" rx="7" fill="#474444" fill-opacity="0.5" stroke="url(#paint2_linear_36_773)" stroke-width="2"/>
<rect x="305" y="183" width="64" height="65" rx="7" fill="#474444" fill-opacity="0.5" stroke="url(#paint3_linear_36_773)" stroke-width="2"/>
<rect x="322" y="1" width="64" height="65" rx="7" fill="#474444" fill-opacity="0.5" stroke="url(#paint4_linear_36_773)" stroke-width="2"/>
<rect x="514" y="102" width="64" height="65" rx="7" fill="#474444" fill-opacity="0.5" stroke="url(#paint5_linear_36_773)" stroke-width="2"/>
<g clip-path="url(#clip0_36_773)">
<path fill-rule="evenodd" clip-rule="evenodd" d="M103.02 36C89.7375 36 79 46.8167 79 60.1983C79 70.895 85.8799 79.9495 95.4241 83.1542C96.6174 83.3951 97.0545 82.6335 97.0545 81.9929C97.0545 81.4319 97.0151 79.509 97.0151 77.5055C90.3334 78.948 88.942 74.6209 88.942 74.6209C87.8682 71.8164 86.2772 71.0956 86.2772 71.0956C84.0902 69.6132 86.4365 69.6132 86.4365 69.6132C88.8623 69.7735 90.1353 72.0971 90.1353 72.0971C92.2824 75.7827 95.7422 74.7413 97.1341 74.1002C97.3328 72.5377 97.9695 71.456 98.6455 70.8552C93.3163 70.2942 87.7094 68.211 87.7094 58.9161C87.7094 56.2719 88.6632 54.1086 90.1746 52.4261C89.9361 51.8253 89.1008 49.3409 90.4135 46.0157C90.4135 46.0157 92.4417 45.3746 97.0146 48.4996C98.9725 47.9699 100.992 47.7005 103.02 47.6982C105.048 47.6982 107.115 47.979 109.025 48.4996C113.598 45.3746 115.626 46.0157 115.626 46.0157C116.939 49.3409 116.103 51.8253 115.865 52.4261C117.416 54.1086 118.33 56.2719 118.33 58.9161C118.33 68.211 112.723 70.2539 107.354 70.8552C108.23 71.6163 108.985 73.0584 108.985 75.3421C108.985 78.5871 108.945 81.1915 108.945 81.9924C108.945 82.6335 109.383 83.3951 110.576 83.1547C120.12 79.9491 127 70.895 127 60.1983C127.039 46.8167 116.262 36 103.02 36Z" fill="white"/>
</g>
<path d="M204 160.647V191.353C204 192.055 203.721 192.728 203.225 193.225C202.728 193.721 202.055 194 201.353 194H170.647C169.945 194 169.272 193.721 168.775 193.225C168.279 192.728 168 192.055 168 191.353V160.647C168 159.945 168.279 159.272 168.775 158.775C169.272 158.279 169.945 158 170.647 158H201.353C202.055 158 202.728 158.279 203.225 158.775C203.721 159.272 204 159.945 204 160.647V160.647ZM178.588 171.765H173.294V188.706H178.588V171.765ZM179.065 165.941C179.067 165.541 178.991 165.144 178.841 164.773C178.69 164.402 178.468 164.064 178.187 163.779C177.905 163.494 177.571 163.267 177.202 163.111C176.833 162.955 176.437 162.873 176.036 162.871H175.941C175.127 162.871 174.346 163.194 173.77 163.77C173.194 164.346 172.871 165.127 172.871 165.941C172.871 166.756 173.194 167.537 173.77 168.112C174.346 168.688 175.127 169.012 175.941 169.012V169.012C176.342 169.022 176.74 168.952 177.114 168.808C177.488 168.664 177.829 168.448 178.119 168.171C178.409 167.895 178.642 167.564 178.804 167.198C178.967 166.832 179.055 166.437 179.065 166.036V165.941ZM198.706 178.414C198.706 173.321 195.466 171.341 192.247 171.341C191.193 171.288 190.144 171.513 189.204 171.992C188.264 172.472 187.466 173.189 186.889 174.073H186.741V171.765H181.765V188.706H187.059V179.695C186.982 178.772 187.273 177.857 187.868 177.147C188.463 176.437 189.313 175.991 190.235 175.905H190.436C192.12 175.905 193.369 176.964 193.369 179.632V188.706H198.664L198.706 178.414Z" fill="white"/>
<path d="M350.862 203.283C348.312 202.113 345.578 201.251 342.72 200.758C342.668 200.748 342.616 200.772 342.589 200.82C342.237 201.445 341.848 202.261 341.575 202.902C338.501 202.442 335.442 202.442 332.431 202.902C332.158 202.247 331.754 201.445 331.401 200.82C331.374 200.774 331.322 200.75 331.27 200.758C328.413 201.25 325.679 202.112 323.128 203.283C323.106 203.292 323.087 203.308 323.075 203.329C317.889 211.076 316.468 218.633 317.165 226.096C317.168 226.133 317.189 226.168 317.217 226.19C320.639 228.702 323.953 230.228 327.205 231.239C327.258 231.255 327.313 231.236 327.346 231.193C328.115 230.142 328.801 229.034 329.389 227.869C329.424 227.801 329.391 227.72 329.32 227.693C328.232 227.28 327.196 226.777 326.2 226.206C326.121 226.16 326.114 226.047 326.187 225.993C326.397 225.836 326.606 225.672 326.807 225.507C326.843 225.477 326.893 225.471 326.936 225.49C333.482 228.479 340.569 228.479 347.038 225.49C347.081 225.469 347.131 225.476 347.169 225.506C347.369 225.671 347.579 225.836 347.79 225.993C347.863 226.047 347.858 226.16 347.779 226.206C346.783 226.788 345.747 227.28 344.658 227.691C344.587 227.718 344.555 227.801 344.59 227.869C345.19 229.033 345.876 230.14 346.631 231.191C346.663 231.236 346.72 231.255 346.772 231.239C350.04 230.228 353.354 228.702 356.776 226.19C356.806 226.168 356.825 226.134 356.828 226.098C357.662 217.47 355.431 209.975 350.914 203.331C350.903 203.308 350.884 203.292 350.862 203.283ZM330.367 221.552C328.396 221.552 326.772 219.743 326.772 217.52C326.772 215.298 328.364 213.489 330.367 213.489C332.385 213.489 333.993 215.314 333.961 217.52C333.961 219.743 332.369 221.552 330.367 221.552ZM343.658 221.552C341.687 221.552 340.063 219.743 340.063 217.52C340.063 215.298 341.656 213.489 343.658 213.489C345.676 213.489 347.284 215.314 347.253 217.52C347.253 219.743 345.676 221.552 343.658 221.552Z" fill="white"/>
<path d="M364.667 14H371.377L356.717 30.847L373.964 53.7719H360.46L349.883 39.8681L337.781 53.7719H331.066L346.747 35.7522L330.202 14H344.049L353.609 26.7087L364.667 14ZM362.312 49.7336H366.03L342.029 17.8263H338.038L362.312 49.7336Z" fill="white"/>
<path d="M541.147 119.92C541.561 121.684 543.137 122.999 545.019 122.999C547.216 122.999 548.997 121.208 548.997 118.999C548.997 116.791 547.216 115 545.019 115C543.098 115 541.496 116.369 541.123 118.189C537.906 118.536 535.394 121.279 535.394 124.604C535.394 124.611 535.394 124.617 535.394 124.624C531.896 124.773 528.701 125.774 526.165 127.354C525.223 126.621 524.041 126.184 522.758 126.184C519.679 126.184 517.184 128.693 517.184 131.789C517.184 134.035 518.497 135.97 520.394 136.864C520.578 143.371 527.629 148.604 536.303 148.604C544.976 148.604 552.036 143.365 552.212 136.853C554.093 135.953 555.395 134.024 555.395 131.791C555.395 128.695 552.9 126.186 549.821 126.186C548.543 126.186 547.367 126.619 546.427 127.347C543.868 125.755 540.638 124.754 537.104 124.621C537.104 124.615 537.104 124.611 537.104 124.606C537.104 122.224 538.865 120.248 541.147 119.924V119.92ZM525.941 135.346C526.035 133.313 527.377 131.753 528.938 131.753C530.499 131.753 531.693 133.401 531.599 135.434C531.506 137.466 530.341 138.205 528.778 138.205C527.215 138.205 525.848 137.378 525.941 135.346ZM543.669 131.753C545.231 131.753 546.574 133.313 546.666 135.346C546.759 137.378 545.39 138.205 543.829 138.205C542.268 138.205 541.101 137.468 541.008 135.434C540.914 133.401 542.106 131.753 543.669 131.753ZM541.811 140.048C542.104 140.078 542.291 140.384 542.177 140.658C541.216 142.966 538.949 144.588 536.303 144.588C533.656 144.588 531.391 142.966 530.428 140.658C530.315 140.384 530.501 140.078 530.794 140.048C532.509 139.874 534.365 139.778 536.303 139.778C538.24 139.778 540.094 139.874 541.811 140.048Z" fill="white"/>
<path d="M1 112.809C1 112.809 73.5401 12.7127 139.621 112.809C205.702 212.905 259.362 110.306 300.104 185.378C340.845 260.45 313.022 -2.30174 377.612 63.7617C442.203 129.825 553 137.332 553 137.332" stroke="#AE9F9F" stroke-width="2"/>
<g clip-path="url(#clip1_36_773)">
<path d="M12.9998 135.545V142.904H23.2252C22.7762 145.27 21.4287 147.274 19.4079 148.621L25.5742 153.406C29.1669 150.089 31.2397 145.218 31.2397 139.432C31.2397 138.085 31.1188 136.789 30.8942 135.546L12.9998 135.545Z" fill="#4285F4"/>
<path d="M2.35151 142.616L0.960772 143.681L-3.96204 147.516C-0.835681 153.716 5.57203 158 12.9992 158C18.1291 158 22.43 156.307 25.5737 153.406L19.4073 148.621C17.7146 149.761 15.5555 150.452 12.9992 150.452C8.05927 150.452 3.86212 147.118 2.35928 142.627L2.35151 142.616Z" fill="#34A853"/>
<path d="M-3.96197 130.485C-5.25735 133.041 -6 135.925 -6 139C-6 142.074 -5.25735 144.959 -3.96197 147.515C-3.96197 147.532 2.35996 142.61 2.35996 142.61C1.97996 141.47 1.75535 140.261 1.75535 139C1.75535 137.739 1.97996 136.53 2.35996 135.39L-3.96197 130.485Z" fill="#FBBC05"/>
<path d="M12.9996 127.565C15.7979 127.565 18.2851 128.533 20.2714 130.398L25.7123 124.957C22.4132 121.883 18.1297 120 12.9996 120C5.57242 120 -0.835681 124.266 -3.96204 130.485L2.3597 135.39C3.86233 130.899 8.05966 127.565 12.9996 127.565Z" fill="#EA4335"/>
</g>
<defs>
<linearGradient id="paint0_linear_36_773" x1="-18" y1="86" x2="48" y2="225.5" gradientUnits="userSpaceOnUse">
<stop/>
<stop offset="1" stop-color="#666666"/>
</linearGradient>
<linearGradient id="paint1_linear_36_773" x1="70" y1="4" x2="136" y2="143.5" gradientUnits="userSpaceOnUse">
<stop/>
<stop offset="1" stop-color="#666666"/>
</linearGradient>
<linearGradient id="paint2_linear_36_773" x1="153" y1="122" x2="219" y2="261.5" gradientUnits="userSpaceOnUse">
<stop/>
<stop offset="1" stop-color="#666666"/>
</linearGradient>
<linearGradient id="paint3_linear_36_773" x1="304" y1="160" x2="370" y2="299.5" gradientUnits="userSpaceOnUse">
<stop/>
<stop offset="1" stop-color="#666666"/>
</linearGradient>
<linearGradient id="paint4_linear_36_773" x1="321" y1="-22" x2="387" y2="117.5" gradientUnits="userSpaceOnUse">
<stop/>
<stop offset="1" stop-color="#666666"/>
</linearGradient>
<linearGradient id="paint5_linear_36_773" x1="513" y1="79" x2="579" y2="218.5" gradientUnits="userSpaceOnUse">
<stop/>
<stop offset="1" stop-color="#666666"/>
</linearGradient>
<clipPath id="clip0_36_773">
<rect width="48" height="48" fill="white" transform="translate(79 36)"/>
</clipPath>
<clipPath id="clip1_36_773">
<rect width="38" height="38" fill="white" transform="translate(-6 120)"/>
</clipPath>
</defs>
</svg>
